Coordinates
version=1
nRows=6
nColumns=34
inDegrees=yes

Units are S.I. units (second, meters, Newtons, ...)
If the header above contains a line with 'inDegrees', this indicates whether rotational values are in degrees (yes) or radians (no).

endheader
time	pelvis_tilt	pelvis_list	pelvis_rotation	pelvis_tx	pelvis_ty	pelvis_tz	hip_flexion_r	hip_adduction_r	hip_rotation_r	knee_angle_r	ankle_angle_r	subtalar_angle_r	mtp_angle_r	hip_flexion_l	hip_adduction_l	hip_rotation_l	knee_angle_l	ankle_angle_l	subtalar_angle_l	mtp_angle_l	lumbar_extension	lumbar_bending	lumbar_rotation	arm_flex_r	arm_add_r	arm_rot_r	elbow_flex_r	pro_sup_r	arm_flex_l	arm_add_l	arm_rot_l	elbow_flex_l	pro_sup_l
      1.65000000	     -2.45269858	      3.23881506	     -4.80280292	      0.00391200	      1.14807170	     -0.02836702	     -4.76418250	      1.93327652	     -5.36436871	      0.00000000	      6.23200775	     -1.69314747	      0.00000000	     -6.25932461	      4.55641045	    -12.35577787	      0.00000000	      5.48095428	      1.97516401	      0.00000000	      1.87327238	     -0.88864293	      3.07361416	      6.41468863	     -6.76393503	     15.25004651	     21.98874580	     72.89317637	      1.24786032	    -10.09466093	     12.51600563	     29.19651642	     73.78852316
      1.66666670	     -2.54708099	      3.20982881	     -4.76969910	      0.00554935	      1.15008879	     -0.02903130	     -4.63393468	      1.99564455	     -5.30137575	      0.00000000	      6.21500288	     -1.60291349	      0.00000000	     -6.16940301	      4.51021876	    -12.32200128	      0.00000000	      5.58328523	      1.98127906	      0.00000000	      1.84888867	     -0.90331315	      3.16775201	      6.50370576	     -6.66556912	     15.31202177	     22.14973408	     72.89269286	      1.24117919	    -10.03162297	     12.57194217	     29.24455907	     73.79416421
      1.68333330	     -2.57923990	      3.21043685	     -4.77864719	      0.00729318	      1.14933680	     -0.02923750	     -4.62226830	      1.99207776	     -5.30231475	      0.00000000	      6.21146683	     -1.59910280	      0.00000000	     -6.20221640	      4.51169492	    -12.32268186	      0.00000000	      5.58477071	      1.98129870	      0.00000000	      1.84828378	     -0.90071737	      3.16411629	      6.49840286	     -6.66643512	     15.31549270	     22.15524003	     72.89253104	      1.24528687	    -10.02925843	     12.57502052	     29.24880376	     73.79453860
      1.70000000	     -2.62220879	      3.19722146	     -4.80034211	      0.00982017	      1.14690969	     -0.03053303	     -4.63876787	      1.96561856	     -5.31274946	      0.00000000	      6.20323127	     -1.59876251	      0.00000000	     -6.22882036	      4.50817183	    -12.32653446	      0.00000000	      5.58626173	      1.97985645	      0.00000000	      1.85100352	     -0.89847521	      3.16118251	      6.49080086	     -6.66391093	     15.31957796	     22.16111658	     72.89246699	      1.24773301	    -10.02478284	     12.57863344	     29.25339097	     73.79500224
      1.71666670	     -3.14488793	      3.25763305	     -4.85490020	      0.00981287	      1.14690700	     -0.03039024	     -4.15024464	      1.88067510	     -6.06468788	      0.00000000	      5.87085416	     -1.14624837	      0.00000000	     -5.79267045	      4.58159836	    -12.75705824	      0.00000000	      5.84702785	      2.28840950	      0.00000000	      2.79433179	     -0.84376804	      3.55833400	      5.26765780	     -7.29501612	     16.45619703	     24.20265650	     72.76915124	      0.86114259	    -10.10873785	     13.59582329	     29.98176117	     73.90588074
      1.73333330	     -3.14429562	      3.24877835	     -4.87093840	      0.00811515	      1.14963901	     -0.02983082	     -4.14956193	      1.86137075	     -6.07479246	      0.00000000	      5.86989875	     -1.14964605	      0.00000000	     -5.78511150	      4.57918382	    -12.75677300	      0.00000000	      5.84675970	      2.28862507	      0.00000000	      2.79661602	     -0.84109835	      3.55819133	      5.26522852	     -7.29314940	     16.45780890	     24.20381320	     72.76842025	      0.85806824	    -10.10414220	     13.59859362	     29.98120026	     73.90606156
